<svg xmlns="http://www.w3.org/2000/svg" xmlns:xlink="http://www.w3.org/1999/xlink" xmlns:inkscape="http://www.inkscape.org/namespaces/inkscape" version="1.1" width="595.276" height="841.89" viewBox="0 0 595.276 841.89">
<text xml:space="preserve" transform="matrix(1 0 -0 1 0 841.89)" font-size="24.7871" font-family="Lato" font-weight="bold"><tspan y="-788.437" x="28.346 45.573038 52.934808 69.34387 83.62125 103.64922 125.61059 141.42475 158.65178 174.58989 198.0137 205.37548 224.48633">VICTORVARMING</tspan></text>
<text fill="#2e2e2e" xml:space="preserve" transform="matrix(1 0 -0 1 0 841.89)" font-size="7.9701" font-family="FontAwesome5Free"><tspan y="-765.124" x="30.339">@</tspan></text>
<text xml:space="preserve" transform="matrix(1 0 -0 1 0 841.89)" font-size="7.9701" font-family="Lato" font-weight="bold"><tspan y="-765.124" x="40.302 44.510213 46.53462 50.376207 53.309206 57.892015 60.86486 65.28826 69.496479 72.34977 76.852878 79.81775 84.31288 88.56892 95.295688 99.5039 106.182849 110.23166 112.256069 114.24062 116.137508 119.907367 124.49017">victorpvrothe@gmail.com</tspan></text>
<text fill="#2e2e2e" xml:space="preserve" transform="matrix(1 0 -0 1 0 841.89)" font-size="7.9701" font-family="FontAwesome5Free"><tspan y="-765.124" x="152.943">&#xfffd;</tspan></text>
<text xml:space="preserve" transform="matrix(1 0 -0 1 0 841.89)" font-size="7.9701" font-family="Lato" font-weight="bold"><tspan y="-765.124" x="162.906 167.52867 172.15134 178.71074 183.3334 187.95607 192.57874 197.2014 201.82407 206.44673 211.0694">+4521567954</tspan></text>
<text fill="#2e2e2e" xml:space="preserve" transform="matrix(1 0 -0 1 0 841.89)" font-size="7.9701" font-family="FontAwesome5Brands"><tspan y="-765.124" x="237.996">&#xfffd;</tspan></text>
<text xml:space="preserve" transform="matrix(1 0 -0 1 0 841.89)" font-size="7.9701" font-family="Lato" font-weight="bold"><tspan y="-765.124" x="247.461 249.44556 251.46996 255.96509 260.02189 264.27793 268.80494 270.82936 275.3245 277.22138 280.99125 285.57405 292.253 295.96708 297.9915 302.48664 306.2007 310.40895 312.43336 316.27494 319.20793 323.7907 326.68385 329.65669 333.7613 337.8101 340.78294 347.46189 349.4863 353.98146">linkedin.com/in/victor-varming</tspan></text>
<text fill="#2e2e2e" xml:space="preserve" transform="matrix(1 0 -0 1 0 841.89)" font-size="7.9701" font-family="FontAwesome5Free"><tspan y="-765.124" x="380.091">&#xfffd;</tspan></text>
<text xml:space="preserve" transform="matrix(1 0 -0 1 0 841.89)" font-size="7.9701" font-family="Lato" font-weight="bold"><tspan y="-765.124" x="389.926 394.13423 396.15864 400.0002 402.9332 407.516 410.40913 413.38197 417.49455 421.54335 424.51618 431.19514 433.21955 437.7147 441.9229 443.8198 448.028 450.05244 453.0173 457.51246 462.0076 466.5346 468.4315 470.4559">victor-varming.github.io</tspan></text>
<text fill="#00668c" xml:space="preserve" transform="matrix(1 0 -0 1 0 841.89)" font-size="17.2154" font-family="Lato" font-weight="bold"><tspan y="-733.247" x="28.346009 39.002344 49.899694 63.80974 73.55366 78.66663 87.618648">PROFILE</tspan></text>
<path transform="matrix(1,0,0,-1,28.346,117.94299)" d="M0 0H312.923V1.993H0Z"/>
<text xml:space="preserve" transform="matrix(1 0 -0 1 0 841.89)" font-size="9.9626" font-family="Lato"><tspan y="-703.623" x="28.346 33.685956 38.637369 49.387014 54.338426 62.447984 67.3994 71.7132 77.30222 79.693248 83.31963 85.710659 91.26978">Iamanaspiring</tspan></text>
<text xml:space="preserve" transform="matrix(1 0 -0 1 0 841.89)" font-size="9.9626" font-family="Lato" font-weight="bold"><tspan y="-703.623" x="99.000759 103.713069 109.44156 117.79022 123.44898 129.06789 132.77397 137.76525 141.47133 144.00183 149.73033 155.34925 160.41025 165.31185 170.11382 175.73273 181.05275 189.40142 191.93192 196.31546">computationalchemist</tspan></text>
<text xml:space="preserve" transform="matrix(1 0 -0 1 0 841.89)" font-size="9.9626" font-family="Lato"><tspan y="-703.623" x="202.57198 210.40258 212.7936 216.37017 224.47972 231.98157 237.56063 242.51204 247.27416 252.33516 257.51573 260.94285 266.59165 272.1508 277.70994 285.83943 288.23045">withabackgroundin</tspan></text>
<text xml:space="preserve" transform="matrix(1 0 -0 1 0 841.89)" font-size="9.9626" font-family="Lato" font-weight="bold"><tspan y="-689.277" x="28.346 34.004758 39.623666 44.684667 48.400716 56.749376 61.810377 66.52269 71.84272 77.461627 81.16771 83.69821 88.50018 93.56119 98.46279 102.84634 107.64831 110.17881 115.49884 121.117748 125.830059 131.15009">pharmaceuticalsciences</tspan></text>
<text xml:space="preserve" transform="matrix(1 0 -0 1 0 841.89)" font-size="9.9626" font-family="Lato"><tspan y="-689.277" x="135.53363">.</tspan><tspan y="-664.96798" x="28.346 33.606256 38.557668">Iam</tspan></text>
<text xml:space="preserve" transform="matrix(1 0 -0 1 0 841.89)" font-size="9.9626" font-family="Lato" font-weight="bold"><tspan y="-664.96798" x="49.23757 54.557603 59.618604 64.78919 70.10922">eager</tspan></text>
<text xml:space="preserve" transform="matrix(1 0 -0 1 0 841.89)" font-size="9.9626" font-family="Lato"><tspan y="-664.96798" x="76.296 79.852649 87.97217 92.64463 98.29343 103.782817 107.35939 109.75041 115.30954 120.86867 128.59964 136.3605 142.0093 145.63568 150.69669 153.0877 158.64684 166.30808 168.6991 176.72895 180.30551 185.86464 193.59561 195.98664 201.47603 205.03267 210.29293 213.88942 218.20323 223.46349 228.2256 231.80217 234.19319 239.84198 247.87183 253.41103 259.37864 264.96766 270.5268 275.4782 279.10459 287.3038 292.25523 296.92768 302.18794 307.74708 311.32365 313.71467 318.47679 325.27128 330.2227 335.78184">tocontinueworkingintheintersectionofpharmaceuticsand</tspan><tspan y="-650.62197" x="28.346 33.925058 38.816694 42.393266 49.895105 54.208909 58.97103 61.362058 66.62231 72.181438 76.8539 82.11415 86.92609 91.8775 98.74173 103.683177 109.2423 114.08412 119.08535 126.89603 132.47509 138.03421 140.42523 145.18735 150.24835 152.59954 160.29067 165.47122 168.89836 174.46746 182.29805">datascience,asihavequicklygrown</tspan></text>
<text xml:space="preserve" transform="matrix(1 0 -0 1 0 841.89)" font-size="9.9626" font-family="Lato" font-weight="bold"><tspan y="-650.62197" x="190.40761 196.06636 201.12737 205.51091 209.89446 212.42496 218.15346 223.77237 228.76364 232.42987">passionate</tspan></text>
<text xml:space="preserve" transform="matrix(1 0 -0 1 0 841.89)" font-size="9.9626" font-family="Lato"><tspan y="-650.62197" x="240.30033 245.25174 250.8308 256.47959 262.03874 268.1657 271.74229 277.30143 285.1121 290.82066 296.0809 298.43208 304.0111">aboutthe&#xfb01;eld.</tspan><tspan y="-626.3129" x="28.346 37.49167 45.182798 50.373315 55.33469 60.92371 66.18396 69.81035 72.20137 77.461627 83.02075 87.693218 95.50389 97.89491 104.75914 108.33572 113.894847 118.786479 124.913478 127.3045 135.41407 142.91591 148.62448 153.88474 156.23592 164.3654 169.9046 173.40148 176.94815 182.2084 190.31797 195.89702 201.5458 209.74503 212.13605 217.69518 222.58683 226.1335 231.39376 239.52324 244.97278 252.66391 258.24299 263.1346 266.71119 274.213 278.52684 283.28895 285.67997 290.94023 296.42964 300.0062 302.39723 306.71104 310.2876 314.6014">Myexperienceisthatina&#xfb01;eldoftendominatedbydatascientists,</tspan></text>
<text xml:space="preserve" transform="matrix(1 0 -0 1 0 841.89)" font-size="9.9626" font-family="Lato" font-weight="bold"><tspan y="-626.3129" x="319.41334 324.79313 329.5951 334.6561">Ican</tspan><tspan y="-611.9669" x="28.346 33.954946 40.619924 45.939954 52.076913 57.73567 60.266168 66.94111 72.26114 75.82775 81.14778 86.696949 92.823947 98.482707 103.802738 107.50882 111.892368 117.551128 122.871158 127.67313 131.37921 133.90972 139.01056 144.33058">o&#xfb00;erdi&#xfb00;erentperspectives</tspan></text>
<text xml:space="preserve" transform="matrix(1 0 -0 1 0 841.89)" font-size="9.9626" font-family="Lato"><tspan y="-611.9669" x="151.26456 156.84362 162.10387 166.86598 171.8174 177.37653 181.69034 189.50102 195.04022 201.08753 209.15723 216.84836 222.43738 227.9965 232.94792 236.57431 244.77353 249.72495 254.3974 259.65766 265.2168 268.79338 271.1844 275.9465 280.89793 285.7995 291.37855 296.32997 301.09208 306.15309 311.33363 314.76075 320.40956 325.9687 331.52784 337.10688">becauseofmypharmaceuticalbackground.</tspan></text>
<text fill="#00668c" xml:space="preserve" transform="matrix(1 0 -0 1 0 841.89)" font-size="17.2154" font-family="Lato" font-weight="bold"><tspan y="-580.6969" x="28.346 38.244859 49.79639 60.452726 70.35158 81.42108 86.53406 96.432918 109.705989 121.102588">EXPERIENCE</tspan></text>
<path transform="matrix(1,0,0,-1,28.346,270.49305)" d="M0 0H312.923V1.993H0Z"/>
<text xml:space="preserve" transform="matrix(1 0 -0 1 0 841.89)" font-size="11.9552" font-family="Lato" font-weight="bold"><tspan y="-551.073" x="28.346 39.643667 46.195116 54.862634 61.928155 68.67088 75.05496 80.31525 83.35187 88.61215 95.07992 102.99426 109.737 115.81024 118.78709 121.76393 128.14801 134.89075 141.2031 144.23972 150.98246 160.19992 169.22609 175.61017 181.99425 191.68993 197.5958 203.97988 210.05312 214.5124 221.25514 224.29177 231.0345 240.24 249.26619 256.14045 261.90287 268.2989 271.3355 278.07826 287.29573 298.4021 304.72639 309.1737 315.91645 322.79069 329.58125">MScThesis:ChallengingDeepLearningDockingMethods</tspan></text>
<text xml:space="preserve" transform="matrix(1 0 -0 1 0 841.89)" font-size="8.9664" font-family="Lato"><tspan y="-536.727" x="28.346 33.546514 38.747026 43.947538 51.443449 58.939359 64.13987 69.340389 74.5409">2024&#x2013;2025</tspan></text>
<text xml:space="preserve" transform="matrix(1 0 -0 1 0 841.89)" font-size="9.9626" font-family="FontAwesome5Free"><tspan y="-517.399" x="32.082">&#xfffd;</tspan></text>
<text xml:space="preserve" transform="matrix(1 0 -0 1 0 841.89)" font-size="9.9626" font-family="Lato" font-style="italic"><tspan y="-517.399" x="45.621175 52.604959 57.695848 61.142908 68.56504 73.59615 78.129138 80.42053 85.19262 90.47279 94.90615 102.00948 105.058048 110.22864 115.967098 122.930957 126.338169 131.61835 138.7715 145.79514 150.56722 154.55226 156.84366 161.66556 169.277 174.09889 177.32678 182.49738 187.77756 195.37903 200.46991 206.33789 212.4051 217.17719 222.3976 225.82474 230.59682 236.33528 239.38384 244.55443 250.2929 255.8321 261.11228 266.20317 269.61036 277.45094 282.5418 286.97517 291.74726 297.02745 300.56416 302.85557 307.31883 312.4097 316.9825 323.9663 329.0572 332.50425">DataScienceforDrugDesigngroupatCenterforPharmaceuticalData</tspan><tspan y="-503.05299" x="28.346 33.377115 37.910097 40.201494 44.97358 50.253759 54.697076 61.80041 66.95108 72.2213 77.50148 81.96472 87.05561 90.59233 92.88373 98.05432 103.3345 107.90733 114.59224 119.87242 122.16382 126.82632 131.5984 134.97573 138.96077 141.25217 144.7889 151.90219 156.9632 162.49245 168.55966 173.73026 179.00048 183.77256 189.05274 194.33292 199.4238 204.12615 208.89823">ScienceEducation,UniversityofCopenhagen</tspan></text>
<text xml:space="preserve" transform="matrix(1 0 -0 1 0 841.89)" font-size="9.9626" font-family="Lato"><tspan y="-483.72599" x="28.346 31.06579 36.51533 41.516557 46.77681 51.090616 54.667188 57.058214 62.238767 67.1304 70.70698 73.098 78.746799 86.856349 92.39555 98.44285 102.019428 107.57855 115.38923 120.968288 126.61708 131.3792 136.4402 138.83123 144.39035 152.12134 157.07276 162.65181 165.04283 167.39402 169.78504 173.3616 175.75263 181.01288 187.87712 193.41632 199.46363 206.18837 208.53955 214.12857 219.6877 224.53949 229.73996 235.38875 237.73993 245.86942 251.64772 256.45967 261.69004 265.23674 269.99885 272.35 277.16194 282.81074 290.9203 294.49687 300.056 307.86668 313.4258 318.93516 323.9364 329.19667">InvestigationofthedockingabilitiesofAlphaFold3,etc.,onthenovel</tspan><tspan y="-469.37998" x="28.346 33.93502 39.494153 44.445566 48.071954 56.27117 61.222585 65.89504 71.1553 76.714427 80.291 82.68202 87.444149 92.39555 94.74673 97.0979 104.789028 108.21616 113.47642 115.82759 120.97826 126.00937 130.96079 136.45018 142.57718 148.15624 153.03792 156.61449 161.5659 165.87972 171.11008 177.23708 184.74889 190.00914 195.2694 200.70897 208.22078 213.86957 218.63169 223.69269 226.08371 231.64284 236.72377 244.1758 249.12722 252.54439 257.80464 263.1346 272.888 280.69868 285.6501 289.0772 296.88789 301.65 307.20915 310.8355 314.25267 319.5129 325.00233 328.5789 330.93006">pharmaceuticallyrelevantdatasetDeepDockingDare.Wearecurrently</tspan><tspan y="-455.03297" x="28.346 33.93502 37.362157 42.98106 48.161615 51.58875 56.849004 61.162809 65.476619 67.86764 73.426769 81.15774 84.70443 90.283489 98.05431 103.00572 106.43286 112.01192 118.876148 124.465167 130.02429 135.60335 137.95453 140.34555 144.65937 150.21849 152.60951 158.16864 165.89963 169.4762 175.03533 182.84601 190.60688 196.25566 199.88205 204.94306">progressingtowardspublishingthework.</tspan></text>
<text xml:space="preserve" transform="matrix(1 0 -0 1 0 841.89)" font-size="9.9626" font-family="Lato" font-weight="bold"><tspan y="-430.72496" x="28.346 34.423189 39.663518 43.110578 48.430608 51.997217 57.317247 62.936155 67.64847 72.9685 77.35204">References:</tspan></text>
<text xml:space="preserve" transform="matrix(1 0 -0 1 0 841.89)" font-size="8.9664" font-family="Lato"><tspan y="-416.37794" x="28.346">&#x2022;</tspan></text>
<text xml:space="preserve" transform="matrix(1 0 -0 1 0 841.89)" font-size="9.9626" font-family="Lato"><tspan y="-416.37794" x="38.527814 44.42567 47.842844 53.38205 56.64978 61.97977 68.70452 71.055698 76.63475 81.895008 85.52139 91.64839 98.412998 104.63962 110.288417 115.93721 118.32823 122.64204 126.21861 129.7653 137.26715 142.31819 147.62827 153.1874 158.77642 164.03667 167.66306 172.80376 175.19478 179.50859 185.15738 191.3342 196.38524 202.16355 207.94185 216.27059 222.04889 230.37763 236.15593 244.48467 250.26297 258.5917 264.37004">Prof.AlbertJKooistra|Supervisor|+4535328305</tspan></text>
<text xml:space="preserve" transform="matrix(1 0 -0 1 0 841.89)" font-size="8.9664" font-family="Lato"><tspan y="-398.44593" x="28.346">&#x2022;</tspan></text>
<text xml:space="preserve" transform="matrix(1 0 -0 1 0 841.89)" font-size="9.9626" font-family="Lato"><tspan y="-398.44593" x="38.527814 46.009729 49.237615 54.567605 58.60246 64.25125 69.81038 74.761798 81.62602 87.62351 92.883769 96.510158 102.06928 107.32954 109.68071 112.03188 117.29214 125.40169 130.45273 137.00812 142.6569 146.36299 150.6768 156.23593 161.82495 167.0852 170.7116 175.8523 178.24332 182.55713 188.20592 194.38274 199.43378 205.21208 210.99039 219.31912 225.09743 233.42617 239.20447 247.5332 253.31151 261.64024 267.41856">Dr.JonasVerhellen|Co-supervisor|+4535326308</tspan></text>
<path transform="matrix(1,0,0,-1,28.346,461.078)" stroke-width=".598" stroke-linecap="butt" stroke-miterlimit="10" stroke-linejoin="miter" fill="none" stroke="#b3b3b3" d="M0 0H2.523"/>
<path transform="matrix(1,0,0,-1,33.393,461.078)" stroke-width=".598" stroke-linecap="butt" stroke-miterlimit="10" stroke-linejoin="miter" fill="none" stroke="#b3b3b3" d="M0 0H2.523"/>
<path transform="matrix(1,0,0,-1,38.439,461.078)" stroke-width=".598" stroke-linecap="butt" stroke-miterlimit="10" stroke-linejoin="miter" fill="none" stroke="#b3b3b3" d="M0 0H2.523"/>
<path transform="matrix(1,0,0,-1,43.485,461.078)" stroke-width=".598" stroke-linecap="butt" stroke-miterlimit="10" stroke-linejoin="miter" fill="none" stroke="#b3b3b3" d="M0 0H2.523"/>
<path transform="matrix(1,0,0,-1,48.531,461.078)" stroke-width=".598" stroke-linecap="butt" stroke-miterlimit="10" stroke-linejoin="miter" fill="none" stroke="#b3b3b3" d="M0 0H2.523"/>
<path transform="matrix(1,0,0,-1,53.577,461.078)" stroke-width=".598" stroke-linecap="butt" stroke-miterlimit="10" stroke-linejoin="miter" fill="none" stroke="#b3b3b3" d="M0 0H2.523"/>
<path transform="matrix(1,0,0,-1,58.623,461.078)" stroke-width=".598" stroke-linecap="butt" stroke-miterlimit="10" stroke-linejoin="miter" fill="none" stroke="#b3b3b3" d="M0 0H2.523"/>
<path transform="matrix(1,0,0,-1,63.669,461.078)" stroke-width=".598" stroke-linecap="butt" stroke-miterlimit="10" stroke-linejoin="miter" fill="none" stroke="#b3b3b3" d="M0 0H2.523"/>
<path transform="matrix(1,0,0,-1,68.715,461.078)" stroke-width=".598" stroke-linecap="butt" stroke-miterlimit="10" stroke-linejoin="miter" fill="none" stroke="#b3b3b3" d="M0 0H2.523"/>
<path transform="matrix(1,0,0,-1,73.761,461.078)" stroke-width=".598" stroke-linecap="butt" stroke-miterlimit="10" stroke-linejoin="miter" fill="none" stroke="#b3b3b3" d="M0 0H2.523"/>
<path transform="matrix(1,0,0,-1,78.807,461.078)" stroke-width=".598" stroke-linecap="butt" stroke-miterlimit="10" stroke-linejoin="miter" fill="none" stroke="#b3b3b3" d="M0 0H2.523"/>
<path transform="matrix(1,0,0,-1,83.853,461.078)" stroke-width=".598" stroke-linecap="butt" stroke-miterlimit="10" stroke-linejoin="miter" fill="none" stroke="#b3b3b3" d="M0 0H2.523"/>
<path transform="matrix(1,0,0,-1,88.899,461.078)" stroke-width=".598" stroke-linecap="butt" stroke-miterlimit="10" stroke-linejoin="miter" fill="none" stroke="#b3b3b3" d="M0 0H2.523"/>
<path transform="matrix(1,0,0,-1,93.945,461.078)" stroke-width=".598" stroke-linecap="butt" stroke-miterlimit="10" stroke-linejoin="miter" fill="none" stroke="#b3b3b3" d="M0 0H2.523"/>
<path transform="matrix(1,0,0,-1,98.992,461.078)" stroke-width=".598" stroke-linecap="butt" stroke-miterlimit="10" stroke-linejoin="miter" fill="none" stroke="#b3b3b3" d="M0 0H2.523"/>
<path transform="matrix(1,0,0,-1,104.038,461.078)" stroke-width=".598" stroke-linecap="butt" stroke-miterlimit="10" stroke-linejoin="miter" fill="none" stroke="#b3b3b3" d="M0 0H2.523"/>
<path transform="matrix(1,0,0,-1,109.084,461.078)" stroke-width=".598" stroke-linecap="butt" stroke-miterlimit="10" stroke-linejoin="miter" fill="none" stroke="#b3b3b3" d="M0 0H2.523"/>
<path transform="matrix(1,0,0,-1,114.13,461.078)" stroke-width=".598" stroke-linecap="butt" stroke-miterlimit="10" stroke-linejoin="miter" fill="none" stroke="#b3b3b3" d="M0 0H2.523"/>
<path transform="matrix(1,0,0,-1,119.176,461.078)" stroke-width=".598" stroke-linecap="butt" stroke-miterlimit="10" stroke-linejoin="miter" fill="none" stroke="#b3b3b3" d="M0 0H2.523"/>
<path transform="matrix(1,0,0,-1,124.222,461.078)" stroke-width=".598" stroke-linecap="butt" stroke-miterlimit="10" stroke-linejoin="miter" fill="none" stroke="#b3b3b3" d="M0 0H2.523"/>
<path transform="matrix(1,0,0,-1,129.268,461.078)" stroke-width=".598" stroke-linecap="butt" stroke-miterlimit="10" stroke-linejoin="miter" fill="none" stroke="#b3b3b3" d="M0 0H2.523"/>
<path transform="matrix(1,0,0,-1,134.314,461.078)" stroke-width=".598" stroke-linecap="butt" stroke-miterlimit="10" stroke-linejoin="miter" fill="none" stroke="#b3b3b3" d="M0 0H2.523"/>
<path transform="matrix(1,0,0,-1,139.36,461.078)" stroke-width=".598" stroke-linecap="butt" stroke-miterlimit="10" stroke-linejoin="miter" fill="none" stroke="#b3b3b3" d="M0 0H2.523"/>
<path transform="matrix(1,0,0,-1,144.406,461.078)" stroke-width=".598" stroke-linecap="butt" stroke-miterlimit="10" stroke-linejoin="miter" fill="none" stroke="#b3b3b3" d="M0 0H2.523"/>
<path transform="matrix(1,0,0,-1,149.452,461.078)" stroke-width=".598" stroke-linecap="butt" stroke-miterlimit="10" stroke-linejoin="miter" fill="none" stroke="#b3b3b3" d="M0 0H2.523"/>
<path transform="matrix(1,0,0,-1,154.498,461.078)" stroke-width=".598" stroke-linecap="butt" stroke-miterlimit="10" stroke-linejoin="miter" fill="none" stroke="#b3b3b3" d="M0 0H2.523"/>
<path transform="matrix(1,0,0,-1,159.545,461.078)" stroke-width=".598" stroke-linecap="butt" stroke-miterlimit="10" stroke-linejoin="miter" fill="none" stroke="#b3b3b3" d="M0 0H2.523"/>
<path transform="matrix(1,0,0,-1,164.591,461.078)" stroke-width=".598" stroke-linecap="butt" stroke-miterlimit="10" stroke-linejoin="miter" fill="none" stroke="#b3b3b3" d="M0 0H2.523"/>
<path transform="matrix(1,0,0,-1,169.637,461.078)" stroke-width=".598" stroke-linecap="butt" stroke-miterlimit="10" stroke-linejoin="miter" fill="none" stroke="#b3b3b3" d="M0 0H2.523"/>
<path transform="matrix(1,0,0,-1,174.683,461.078)" stroke-width=".598" stroke-linecap="butt" stroke-miterlimit="10" stroke-linejoin="miter" fill="none" stroke="#b3b3b3" d="M0 0H2.523"/>
<path transform="matrix(1,0,0,-1,179.729,461.078)" stroke-width=".598" stroke-linecap="butt" stroke-miterlimit="10" stroke-linejoin="miter" fill="none" stroke="#b3b3b3" d="M0 0H2.523"/>
<path transform="matrix(1,0,0,-1,184.775,461.078)" stroke-width=".598" stroke-linecap="butt" stroke-miterlimit="10" stroke-linejoin="miter" fill="none" stroke="#b3b3b3" d="M0 0H2.523"/>
<path transform="matrix(1,0,0,-1,189.821,461.078)" stroke-width=".598" stroke-linecap="butt" stroke-miterlimit="10" stroke-linejoin="miter" fill="none" stroke="#b3b3b3" d="M0 0H2.523"/>
<path transform="matrix(1,0,0,-1,194.867,461.078)" stroke-width=".598" stroke-linecap="butt" stroke-miterlimit="10" stroke-linejoin="miter" fill="none" stroke="#b3b3b3" d="M0 0H2.523"/>
<path transform="matrix(1,0,0,-1,199.913,461.078)" stroke-width=".598" stroke-linecap="butt" stroke-miterlimit="10" stroke-linejoin="miter" fill="none" stroke="#b3b3b3" d="M0 0H2.523"/>
<path transform="matrix(1,0,0,-1,204.959,461.078)" stroke-width=".598" stroke-linecap="butt" stroke-miterlimit="10" stroke-linejoin="miter" fill="none" stroke="#b3b3b3" d="M0 0H2.523"/>
<path transform="matrix(1,0,0,-1,210.005,461.078)" stroke-width=".598" stroke-linecap="butt" stroke-miterlimit="10" stroke-linejoin="miter" fill="none" stroke="#b3b3b3" d="M0 0H2.523"/>
<path transform="matrix(1,0,0,-1,215.051,461.078)" stroke-width=".598" stroke-linecap="butt" stroke-miterlimit="10" stroke-linejoin="miter" fill="none" stroke="#b3b3b3" d="M0 0H2.523"/>
<path transform="matrix(1,0,0,-1,220.097,461.078)" stroke-width=".598" stroke-linecap="butt" stroke-miterlimit="10" stroke-linejoin="miter" fill="none" stroke="#b3b3b3" d="M0 0H2.523"/>
<path transform="matrix(1,0,0,-1,225.144,461.078)" stroke-width=".598" stroke-linecap="butt" stroke-miterlimit="10" stroke-linejoin="miter" fill="none" stroke="#b3b3b3" d="M0 0H2.523"/>
<path transform="matrix(1,0,0,-1,230.19,461.078)" stroke-width=".598" stroke-linecap="butt" stroke-miterlimit="10" stroke-linejoin="miter" fill="none" stroke="#b3b3b3" d="M0 0H2.523"/>
<path transform="matrix(1,0,0,-1,235.236,461.078)" stroke-width=".598" stroke-linecap="butt" stroke-miterlimit="10" stroke-linejoin="miter" fill="none" stroke="#b3b3b3" d="M0 0H2.523"/>
<path transform="matrix(1,0,0,-1,240.282,461.078)" stroke-width=".598" stroke-linecap="butt" stroke-miterlimit="10" stroke-linejoin="miter" fill="none" stroke="#b3b3b3" d="M0 0H2.523"/>
<path transform="matrix(1,0,0,-1,245.328,461.078)" stroke-width=".598" stroke-linecap="butt" stroke-miterlimit="10" stroke-linejoin="miter" fill="none" stroke="#b3b3b3" d="M0 0H2.523"/>
<path transform="matrix(1,0,0,-1,250.374,461.078)" stroke-width=".598" stroke-linecap="butt" stroke-miterlimit="10" stroke-linejoin="miter" fill="none" stroke="#b3b3b3" d="M0 0H2.523"/>
<path transform="matrix(1,0,0,-1,255.42,461.078)" stroke-width=".598" stroke-linecap="butt" stroke-miterlimit="10" stroke-linejoin="miter" fill="none" stroke="#b3b3b3" d="M0 0H2.523"/>
<path transform="matrix(1,0,0,-1,260.466,461.078)" stroke-width=".598" stroke-linecap="butt" stroke-miterlimit="10" stroke-linejoin="miter" fill="none" stroke="#b3b3b3" d="M0 0H2.523"/>
<path transform="matrix(1,0,0,-1,265.512,461.078)" stroke-width=".598" stroke-linecap="butt" stroke-miterlimit="10" stroke-linejoin="miter" fill="none" stroke="#b3b3b3" d="M0 0H2.523"/>
<path transform="matrix(1,0,0,-1,270.558,461.078)" stroke-width=".598" stroke-linecap="butt" stroke-miterlimit="10" stroke-linejoin="miter" fill="none" stroke="#b3b3b3" d="M0 0H2.523"/>
<path transform="matrix(1,0,0,-1,275.604,461.078)" stroke-width=".598" stroke-linecap="butt" stroke-miterlimit="10" stroke-linejoin="miter" fill="none" stroke="#b3b3b3" d="M0 0H2.523"/>
<path transform="matrix(1,0,0,-1,280.65,461.078)" stroke-width=".598" stroke-linecap="butt" stroke-miterlimit="10" stroke-linejoin="miter" fill="none" stroke="#b3b3b3" d="M0 0H2.523"/>
<path transform="matrix(1,0,0,-1,285.697,461.078)" stroke-width=".598" stroke-linecap="butt" stroke-miterlimit="10" stroke-linejoin="miter" fill="none" stroke="#b3b3b3" d="M0 0H2.523"/>
<path transform="matrix(1,0,0,-1,290.743,461.078)" stroke-width=".598" stroke-linecap="butt" stroke-miterlimit="10" stroke-linejoin="miter" fill="none" stroke="#b3b3b3" d="M0 0H2.523"/>
<path transform="matrix(1,0,0,-1,295.789,461.078)" stroke-width=".598" stroke-linecap="butt" stroke-miterlimit="10" stroke-linejoin="miter" fill="none" stroke="#b3b3b3" d="M0 0H2.523"/>
<path transform="matrix(1,0,0,-1,300.835,461.078)" stroke-width=".598" stroke-linecap="butt" stroke-miterlimit="10" stroke-linejoin="miter" fill="none" stroke="#b3b3b3" d="M0 0H2.523"/>
<path transform="matrix(1,0,0,-1,305.881,461.078)" stroke-width=".598" stroke-linecap="butt" stroke-miterlimit="10" stroke-linejoin="miter" fill="none" stroke="#b3b3b3" d="M0 0H2.523"/>
<path transform="matrix(1,0,0,-1,310.927,461.078)" stroke-width=".598" stroke-linecap="butt" stroke-miterlimit="10" stroke-linejoin="miter" fill="none" stroke="#b3b3b3" d="M0 0H2.523"/>
<path transform="matrix(1,0,0,-1,315.973,461.078)" stroke-width=".598" stroke-linecap="butt" stroke-miterlimit="10" stroke-linejoin="miter" fill="none" stroke="#b3b3b3" d="M0 0H2.523"/>
<path transform="matrix(1,0,0,-1,321.019,461.078)" stroke-width=".598" stroke-linecap="butt" stroke-miterlimit="10" stroke-linejoin="miter" fill="none" stroke="#b3b3b3" d="M0 0H2.523"/>
<path transform="matrix(1,0,0,-1,326.065,461.078)" stroke-width=".598" stroke-linecap="butt" stroke-miterlimit="10" stroke-linejoin="miter" fill="none" stroke="#b3b3b3" d="M0 0H2.523"/>
<path transform="matrix(1,0,0,-1,331.111,461.078)" stroke-width=".598" stroke-linecap="butt" stroke-miterlimit="10" stroke-linejoin="miter" fill="none" stroke="#b3b3b3" d="M0 0H2.523"/>
<path transform="matrix(1,0,0,-1,336.157,461.078)" stroke-width=".598" stroke-linecap="butt" stroke-miterlimit="10" stroke-linejoin="miter" fill="none" stroke="#b3b3b3" d="M0 0H2.523"/>
<text xml:space="preserve" transform="matrix(1 0 -0 1 0 841.89)" font-size="11.9552" font-family="Lato" font-weight="bold"><tspan y="-360.189" x="28.346 36.116884 42.859617 48.119905 51.156526 57.899259 64.28333 69.543628 77.70902 84.16483 90.90756 97.69812 104.48868 111.362918 115.822208 123.17465 129.47504 133.92238 140.66512 147.45568 153.83975 160.49881 167.85128 179.68692 186.56116 191.02045 197.10564 203.48972 210.85413 213.89075 223.5386 226.99365 233.65271 238.05223 244.43631 248.8956 255.63834 261.71159 267.59355 278.71189 285.09596 291.8865 294.92314 300.68556 303.72218 310.4649">BusinessSupportStudentWorkerinInternalMedicine</tspan></text>
<text xml:space="preserve" transform="matrix(1 0 -0 1 0 841.89)" font-size="8.9664" font-family="Lato"><tspan y="-345.843" x="28.346 33.546514 38.747026 43.947538 51.443449 58.939359 64.13987 69.340389 74.5409">2020&#x2013;2022</tspan></text>
<text xml:space="preserve" transform="matrix(1 0 -0 1 0 841.89)" font-size="9.9626" font-family="FontAwesome5Free"><tspan y="-326.516" x="32.082">&#xfffd;</tspan></text>
<text xml:space="preserve" transform="matrix(1 0 -0 1 0 841.89)" font-size="9.9626" font-family="Lato" font-style="italic"><tspan y="-326.516" x="45.621175 51.220155 56.540185 60.674665 65.44675 71.1852 78.20884 82.98093 88.26111 96.10168 101.192569 104.59978 109.32205 113.89488 119.822628 124.91351 127.1551 129.39669 134.16876 137.57598 142.85616">P&#xfb01;zerDenmark,Ballerup</tspan></text>
<text xml:space="preserve" transform="matrix(1 0 -0 1 0 841.89)" font-size="9.9626" font-family="Lato"><tspan y="-307.188" x="28.346 34.791807 40.918806 46.906328 52.614896 57.028326 62.288579 68.465389 73.805339 78.985889 83.9373 86.32832 91.88745 97.147708 105.27718 107.668209 113.22733 117.54114 119.93216 125.11271 130.60211 136.72911 139.12014 144.60953 148.1562 156.35543 161.94445 167.50357 172.45499 176.08138 184.2806 189.23201 193.90447 199.16472 204.72385 208.30042 210.69144 215.45355 220.40497 225.30658 230.88564 236.44477 240.75858 243.1496 248.70873 253.96898 258.28279 265.147 268.72358 274.2827 277.70985 283.35865 288.9178 294.09834 302.2079 310.2776">AtP&#xfb01;zerIgainedinsightintopharmaceuticalbusinessthroughmy</tspan><tspan y="-292.84199" x="28.346 33.925058 39.484189 43.797994 46.18902 51.74815 57.008405 61.32221 68.18644 72.500247 78.05937 83.64839 89.23741 94.88621 98.512599 104.639598 108.066738 113.71553 116.0667 121.32696 126.13889 133.9695 139.52863 144.78888 148.20606 156.01674 161.3567 169.11757 174.76636 178.39275 183.1748 188.43506 196.56455 201.51596 206.27808 209.69525 215.34404 219.65785 226.5221 232.10115 234.49217 240.96785 246.2281 249.64528 254.90554 260.39494 266.5219 272.10096 277.6601 281.9739 284.36494 289.92408 295.18434 299.49815 306.36238 311.9215 317.48066 319.87168 323.44825">businesssupportrole,whereIworkedacrossdi&#xfb00;erentbusinessunits</tspan><tspan y="-278.49598" x="28.346 36.176607 38.56763 42.144205 50.25376 57.7556 62.786714 67.73813 71.36452 73.75554 78.98591 82.562488 90.25361 95.792819 101.84011 105.257289 110.51754 114.831348 120.420368 126.06916 131.6283 135.94211 138.33313 143.91219 146.3032 148.65439 151.04541 154.62198 157.013 162.27326 166.58707">withavarietyofresponsibilities.</tspan></text>
<text xml:space="preserve" transform="matrix(1 0 -0 1 0 841.89)" font-size="9.9626" font-family="Lato" font-weight="bold"><tspan y="-254.18697" x="28.346 37.631147 42.692148 45.22265 53.262468 56.83904 62.15907 66.54261 72.20137 77.92986 83.54877 87.93231 90.462818 96.121578 98.65208 101.13277 103.66327 107.369358 109.89986 115.21989 119.60343">Mainresponsibilities:</tspan></text>
<text xml:space="preserve" transform="matrix(1 0 -0 1 0 841.89)" font-size="8.9664" font-family="Lato"><tspan y="-239.84098" x="28.346">&#x2022;</tspan></text>
<text xml:space="preserve" transform="matrix(1 0 -0 1 0 841.89)" font-size="9.9626" font-family="Lato"><tspan y="-239.84098" x="38.527814 45.162904 50.74196 58.941179 61.332204 66.891338 69.28236 73.59616 77.17274 80.71942 85.61106 89.18764 91.57866 97.227458 105.337009 110.87621 116.92351 122.51253 125.9297 131.57849 139.77771 145.33684 148.9134 151.30443 156.95322 162.51235 167.46376 172.36537 180.56459 185.45624 189.00292 194.26317 197.88956 200.28058 205.232 210.1336 213.47107 219.11986 225.29668 232.74869 238.00894 242.96036 245.31154 248.8881 256.99766 263.65269 268.6041 272.03123 279.8419 285.72978 289.1569 294.6961 298.02363 303.28388 307.5977 311.9115 314.30253 319.95133 325.51048 330.46189 332.81306">AdministrationofpromotionalmaterialforHealthCareProfessionals</tspan><tspan y="-225.49498" x="38.528 43.479413 48.241537 51.668668 57.31746 61.631265 68.49549 76.69471 82.25384 84.60501 88.18159 90.57261 96.16163 98.5128 106.32348 111.902538 114.29356 118.60736 123.867618 128.81903 133.13285 140.94353 145.89495 149.31212 154.57238 159.52379 163.8376">acrossmultiplediseaseareas.</tspan></text>
<text xml:space="preserve" transform="matrix(1 0 -0 1 0 841.89)" font-size="8.9664" font-family="Lato"><tspan y="-207.56198" x="28.346">&#x2022;</tspan></text>
<text xml:space="preserve" transform="matrix(1 0 -0 1 0 841.89)" font-size="9.9626" font-family="Lato"><tspan y="-207.56198" x="38.527814 45.162904 50.74196 58.941179 61.332204 66.891338 69.28236 73.59616 77.17274 80.71942 85.61106 89.18764 91.57866 97.227458 105.337009 110.87621 116.92351 119.31453 123.628337 127.94214 133.50127 138.76152 146.891 155.09023 160.73902 166.31807 168.70909 171.06027 178.87096 184.45001 189.60068 194.74138 197.1324 201.80486 207.06511 211.37892">Administrationofissuedmobiledevices.</tspan></text>
<text xml:space="preserve" transform="matrix(1 0 -0 1 0 841.89)" font-size="9.9626" font-family="Lato" font-weight="bold"><tspan y="-179.66698" x="28.346 34.423189 39.663518 43.110578 48.430608 51.997217 57.317247 62.936155 67.64847 72.9685 77.35204">References:</tspan></text>
<text xml:space="preserve" transform="matrix(1 0 -0 1 0 841.89)" font-size="8.9664" font-family="Lato"><tspan y="-165.31998" x="28.346">&#x2022;</tspan></text>
<text xml:space="preserve" transform="matrix(1 0 -0 1 0 841.89)" font-size="9.9626" font-family="Lato"><tspan y="-165.31998" x="38.527814 45.252569 50.8117 56.37083 58.761857 63.822858 71.32469 78.87634 84.017047 87.64343 89.994609 95.553737 101.11286 109.24234 113.31705 118.876178 124.4353 129.3369 134.38794 140.14632 144.88852 150.14878 154.91089 160.47002 164.04659 166.4376 171.43883 179.24951 185.99419 190.308 194.62181 197.01284 201.32665 204.90322 209.85463 215.34403 221.47103 226.52207 232.30037 238.07868 246.40741 252.18572 260.51445 266.29277 274.6215 280.3998 288.72856 294.50688">AnnikaDyrlundJuul|ExecutiveAssistant|+4551561189</tspan></text>
<text xml:space="preserve" transform="matrix(1 0 -0 1 0 841.89)" font-size="8.9664" font-family="Lato"><tspan y="-147.38797" x="28.346">&#x2022;</tspan></text>
<text xml:space="preserve" transform="matrix(1 0 -0 1 0 841.89)" font-size="9.9626" font-family="Lato"><tspan y="-147.38797" x="38.527814 45.252569 50.8117 56.37083 61.631086 65.33717 72.54013 75.96727 81.187679 84.76425 90.32338 98.02447 103.23491 106.66205 112.310848 116.62465 120.201229 123.827617 129.38675 137.41661 142.35807 151.46387 156.72412 162.30318 164.6942 169.45632 174.40773 179.19976 183.9519 189.21216 194.16358 202.18347 207.48358 213.0726 218.33286 223.09497 225.486 230.43741 232.78859 235.17961 238.75618 246.34769 253.0027 257.9541 261.37126 266.6315 271.35377 276.97267 279.36369 284.92283 287.274 292.2254 297.78456 303.3636 308.09584 310.72596 315.3984 320.65867 323.00984 327.96125 333.5204 339.09944">Anne-GretheFr&#x00f8;strup|MedicalLeadSpecialityCare,Finland,Iceland,</tspan><tspan y="-133.04198" x="38.528 45.989988 51.63878 55.265169 63.035997 67.86786 75.55898 80.51039 86.06952 94.199 101.71079 106.97105 112.530178 120.72939 125.6808 129.30719 136.91863 141.96967 147.74797 153.52628 161.85501 167.63332 175.96205 181.74036 190.06909 195.8474 204.17613 209.95444">NorwayandDenmark|+4553759135</tspan></text>
<text xml:space="preserve" transform="matrix(1 0 -0 1 0 841.89)" font-size="8.9664" font-family="Lato"><tspan y="-115.10898" x="28.346">&#x2022;</tspan></text>
<text xml:space="preserve" transform="matrix(1 0 -0 1 0 841.89)" font-size="9.9626" font-family="Lato"><tspan y="-115.10898" x="38.527814 44.485448 46.876474 54.37831 63.484128 69.13292 73.446727 81.2574 88.78912 91.180149 96.4404 98.79157 103.10538 108.36563 116.47518 121.526218 126.82632 130.06417 135.3842 141.93959 147.58838 153.1475 158.6369 162.21347 165.83986 173.53099 179.8672 183.4139 188.36531 193.92444 202.05393 206.81604 212.0763 217.02771 225.1572 230.20824 235.98654 241.76485 250.09358 255.87189 264.20063 269.97895 278.30769 284.086 292.41474 298.19306">PiaMoseNielsen|Sr.CountryBrandLead|+4529203582</tspan></text>
<text xml:space="preserve" transform="matrix(1 0 -0 1 0 841.89)" font-size="8.9664" font-family="Lato"><tspan y="-97.17598" x="28.346">&#x2022;</tspan></text>
<text xml:space="preserve" transform="matrix(1 0 -0 1 0 841.89)" font-size="9.9626" font-family="Lato"><tspan y="-97.17598" x="38.527814 44.24634 46.597517 50.91132 58.722 65.95485 68.30602 71.93241 74.32343 79.085559 87.19511 92.24614 98.47276 103.6035 111.294628 117.89983 122.572299 127.24476 132.89356 138.45269 143.94208 150.06908 159.17488 164.1263 169.68543 174.63684 179.7377 184.99796 191.17478 196.22582 202.00412 207.78243 216.11116 221.88947 230.2182 235.9965 244.32524 250.10355 258.43229 264.2106">ElseUlrich|KeyAccountManager|+4521600455</tspan></text>
<text fill="#00668c" xml:space="preserve" transform="matrix(1 0 -0 1 0 841.89)" font-size="17.2154" font-family="Lato" font-weight="bold"><tspan y="-733.24697" x="361.195 371.09388 384.1948 396.98585 408.38246 419.12486 429.4541 434.56709 448.4771">EDUCATION</tspan></text>
<path transform="matrix(1,0,0,-1,361.195,117.94299)" d="M0 0H208.61V1.993H0Z"/>
<text xml:space="preserve" transform="matrix(1 0 -0 1 0 841.89)" font-size="11.9552" font-family="Lato" font-weight="bold"><tspan y="-703.623" x="361.195 372.49269 379.0322 387.69975 395.08805 401.83079 407.90403 412.3633 422.38179 428.45503 434.10984 440.4939 447.23664 451.68397 454.72059 460.483 466.55625 472.4382 478.97773 484.74015 487.77677 494.16084 500.90357 506.55839 512.94247">MScPharmaceuticalSciences</tspan></text>
<text xml:space="preserve" transform="matrix(1 0 -0 1 0 841.89)" font-size="8.9664" font-family="Lato"><tspan y="-703.623" x="524.9186 530.1191 535.3196 540.5201 545.7206 549.0561 554.2566 559.4571 564.6576">2023-2025</tspan></text>
<text xml:space="preserve" transform="matrix(1 0 -0 1 0 841.89)" font-size="9.9626" font-family="FontAwesome5Free"><tspan y="-684.29598" x="364.931">&#xfffd;</tspan></text>
<text xml:space="preserve" transform="matrix(1 0 -0 1 0 841.89)" font-size="9.9626" font-family="Lato" font-style="italic"><tspan y="-684.29598" x="378.47019 385.1551 390.43528 392.72669 397.3892 402.1613 405.5386 409.52366 411.81507 415.35179 422.46507 427.52607 433.0553 439.12254 444.29313 449.56333 454.33543 459.6156 464.89579 469.98667 474.68904 479.46113">UniversityofCopenhagen</tspan></text>
<text xml:space="preserve" transform="matrix(1 0 -0 1 0 841.89)" font-size="8.9664" font-family="Lato"><tspan y="-664.96798" x="361.195">&#x2022;</tspan></text>
<text xml:space="preserve" transform="matrix(1 0 -0 1 0 841.89)" font-size="9.9626" font-family="Lato"><tspan y="-664.96798" x="371.3768 377.185 382.74415 388.0044 392.3182 394.70924 399.02305 404.48255 411.13758 416.69673 421.64814 423.9993 426.35047 431.61073 437.16987 442.3504 444.74143 450.30058 458.03153 465.54335 470.8036 476.06385 484.20329 488.96543 494.22569 499.1771 502.80348 508.3626 510.75364 516.31277 524.0437 531.5555 537.2043 541.96646 547.0274 549.41848 554.9776">Thesis:ChallengingDeepLearningDocking</tspan><tspan y="-650.62197" x="371.377 380.47288 385.70326 389.27983 394.83897 400.48777 406.06684 410.38066">Methods.</tspan></text>
<text xml:space="preserve" transform="matrix(1 0 -0 1 0 841.89)" font-size="8.9664" font-family="Lato"><tspan y="-632.68899" x="361.195">&#x2022;</tspan></text>
<text xml:space="preserve" transform="matrix(1 0 -0 1 0 841.89)" font-size="9.9626" font-family="Lato"><tspan y="-632.68899" x="371.3768 377.30455 382.5648 384.91596 390.23597 394.90843 400.55723 406.11637 409.71287 414.02668 419.28694 423.60075 429.07023 435.02787 440.587 445.53843 449.1648 457.364 462.31544 466.98789 472.24815 477.80729 481.38386 483.77488 488.537 493.4884 498.38999 507.48585 513.13467 518.7137 523.97396 526.32516 528.7162 534.2753 539.4559">Rel.courses:PharmaceuticalModeling,</tspan><tspan y="-618.34298" x="371.377 377.36454 382.50526 386.08183 391.64097 397.28977 405.39933 411.2872 414.71434 420.33326 425.5138 429.06047 434.01188 442.2111 450.4103 452.80134 458.36048 466.09144 469.42893 475.07774 481.25453 488.70655 493.58824 497.1648 504.66664 510.04646 514.8086 517.19967 522.4599 528.01907 532.6915">PythonProgrammingforDataScience</tspan></text>
<path transform="matrix(1,0,0,-1,361.195,241.18103)" stroke-width=".598" stroke-linecap="butt" stroke-miterlimit="10" stroke-linejoin="miter" fill="none" stroke="#b3b3b3" d="M0 0H2.523"/>
<path transform="matrix(1,0,0,-1,366.241,241.18103)" stroke-width=".598" stroke-linecap="butt" stroke-miterlimit="10" stroke-linejoin="miter" fill="none" stroke="#b3b3b3" d="M0 0H2.523"/>
<path transform="matrix(1,0,0,-1,371.287,241.18103)" stroke-width=".598" stroke-linecap="butt" stroke-miterlimit="10" stroke-linejoin="miter" fill="none" stroke="#b3b3b3" d="M0 0H2.523"/>
<path transform="matrix(1,0,0,-1,376.333,241.18103)" stroke-width=".598" stroke-linecap="butt" stroke-miterlimit="10" stroke-linejoin="miter" fill="none" stroke="#b3b3b3" d="M0 0H2.523"/>
<path transform="matrix(1,0,0,-1,381.379,241.18103)" stroke-width=".598" stroke-linecap="butt" stroke-miterlimit="10" stroke-linejoin="miter" fill="none" stroke="#b3b3b3" d="M0 0H2.523"/>
<path transform="matrix(1,0,0,-1,386.425,241.18103)" stroke-width=".598" stroke-linecap="butt" stroke-miterlimit="10" stroke-linejoin="miter" fill="none" stroke="#b3b3b3" d="M0 0H2.523"/>
<path transform="matrix(1,0,0,-1,391.471,241.18103)" stroke-width=".598" stroke-linecap="butt" stroke-miterlimit="10" stroke-linejoin="miter" fill="none" stroke="#b3b3b3" d="M0 0H2.523"/>
<path transform="matrix(1,0,0,-1,396.518,241.18103)" stroke-width=".598" stroke-linecap="butt" stroke-miterlimit="10" stroke-linejoin="miter" fill="none" stroke="#b3b3b3" d="M0 0H2.523"/>
<path transform="matrix(1,0,0,-1,401.564,241.18103)" stroke-width=".598" stroke-linecap="butt" stroke-miterlimit="10" stroke-linejoin="miter" fill="none" stroke="#b3b3b3" d="M0 0H2.523"/>
<path transform="matrix(1,0,0,-1,406.61,241.18103)" stroke-width=".598" stroke-linecap="butt" stroke-miterlimit="10" stroke-linejoin="miter" fill="none" stroke="#b3b3b3" d="M0 0H2.523"/>
<path transform="matrix(1,0,0,-1,411.656,241.18103)" stroke-width=".598" stroke-linecap="butt" stroke-miterlimit="10" stroke-linejoin="miter" fill="none" stroke="#b3b3b3" d="M0 0H2.523"/>
<path transform="matrix(1,0,0,-1,416.702,241.18103)" stroke-width=".598" stroke-linecap="butt" stroke-miterlimit="10" stroke-linejoin="miter" fill="none" stroke="#b3b3b3" d="M0 0H2.523"/>
<path transform="matrix(1,0,0,-1,421.748,241.18103)" stroke-width=".598" stroke-linecap="butt" stroke-miterlimit="10" stroke-linejoin="miter" fill="none" stroke="#b3b3b3" d="M0 0H2.523"/>
<path transform="matrix(1,0,0,-1,426.794,241.18103)" stroke-width=".598" stroke-linecap="butt" stroke-miterlimit="10" stroke-linejoin="miter" fill="none" stroke="#b3b3b3" d="M0 0H2.523"/>
<path transform="matrix(1,0,0,-1,431.84,241.18103)" stroke-width=".598" stroke-linecap="butt" stroke-miterlimit="10" stroke-linejoin="miter" fill="none" stroke="#b3b3b3" d="M0 0H2.523"/>
<path transform="matrix(1,0,0,-1,436.886,241.18103)" stroke-width=".598" stroke-linecap="butt" stroke-miterlimit="10" stroke-linejoin="miter" fill="none" stroke="#b3b3b3" d="M0 0H2.523"/>
<path transform="matrix(1,0,0,-1,441.932,241.18103)" stroke-width=".598" stroke-linecap="butt" stroke-miterlimit="10" stroke-linejoin="miter" fill="none" stroke="#b3b3b3" d="M0 0H2.523"/>
<path transform="matrix(1,0,0,-1,446.978,241.18103)" stroke-width=".598" stroke-linecap="butt" stroke-miterlimit="10" stroke-linejoin="miter" fill="none" stroke="#b3b3b3" d="M0 0H2.523"/>
<path transform="matrix(1,0,0,-1,452.024,241.18103)" stroke-width=".598" stroke-linecap="butt" stroke-miterlimit="10" stroke-linejoin="miter" fill="none" stroke="#b3b3b3" d="M0 0H2.523"/>
<path transform="matrix(1,0,0,-1,457.07,241.18103)" stroke-width=".598" stroke-linecap="butt" stroke-miterlimit="10" stroke-linejoin="miter" fill="none" stroke="#b3b3b3" d="M0 0H2.523"/>
<path transform="matrix(1,0,0,-1,462.117,241.18103)" stroke-width=".598" stroke-linecap="butt" stroke-miterlimit="10" stroke-linejoin="miter" fill="none" stroke="#b3b3b3" d="M0 0H2.523"/>
<path transform="matrix(1,0,0,-1,467.163,241.18103)" stroke-width=".598" stroke-linecap="butt" stroke-miterlimit="10" stroke-linejoin="miter" fill="none" stroke="#b3b3b3" d="M0 0H2.523"/>
<path transform="matrix(1,0,0,-1,472.209,241.18103)" stroke-width=".598" stroke-linecap="butt" stroke-miterlimit="10" stroke-linejoin="miter" fill="none" stroke="#b3b3b3" d="M0 0H2.523"/>
<path transform="matrix(1,0,0,-1,477.255,241.18103)" stroke-width=".598" stroke-linecap="butt" stroke-miterlimit="10" stroke-linejoin="miter" fill="none" stroke="#b3b3b3" d="M0 0H2.523"/>
<path transform="matrix(1,0,0,-1,482.301,241.18103)" stroke-width=".598" stroke-linecap="butt" stroke-miterlimit="10" stroke-linejoin="miter" fill="none" stroke="#b3b3b3" d="M0 0H2.523"/>
<path transform="matrix(1,0,0,-1,487.347,241.18103)" stroke-width=".598" stroke-linecap="butt" stroke-miterlimit="10" stroke-linejoin="miter" fill="none" stroke="#b3b3b3" d="M0 0H2.523"/>
<path transform="matrix(1,0,0,-1,492.393,241.18103)" stroke-width=".598" stroke-linecap="butt" stroke-miterlimit="10" stroke-linejoin="miter" fill="none" stroke="#b3b3b3" d="M0 0H2.523"/>
<path transform="matrix(1,0,0,-1,497.439,241.18103)" stroke-width=".598" stroke-linecap="butt" stroke-miterlimit="10" stroke-linejoin="miter" fill="none" stroke="#b3b3b3" d="M0 0H2.523"/>
<path transform="matrix(1,0,0,-1,502.485,241.18103)" stroke-width=".598" stroke-linecap="butt" stroke-miterlimit="10" stroke-linejoin="miter" fill="none" stroke="#b3b3b3" d="M0 0H2.523"/>
<path transform="matrix(1,0,0,-1,507.531,241.18103)" stroke-width=".598" stroke-linecap="butt" stroke-miterlimit="10" stroke-linejoin="miter" fill="none" stroke="#b3b3b3" d="M0 0H2.523"/>
<path transform="matrix(1,0,0,-1,512.577,241.18103)" stroke-width=".598" stroke-linecap="butt" stroke-miterlimit="10" stroke-linejoin="miter" fill="none" stroke="#b3b3b3" d="M0 0H2.523"/>
<path transform="matrix(1,0,0,-1,517.623,241.18103)" stroke-width=".598" stroke-linecap="butt" stroke-miterlimit="10" stroke-linejoin="miter" fill="none" stroke="#b3b3b3" d="M0 0H2.523"/>
<path transform="matrix(1,0,0,-1,522.67,241.18103)" stroke-width=".598" stroke-linecap="butt" stroke-miterlimit="10" stroke-linejoin="miter" fill="none" stroke="#b3b3b3" d="M0 0H2.523"/>
<path transform="matrix(1,0,0,-1,527.716,241.18103)" stroke-width=".598" stroke-linecap="butt" stroke-miterlimit="10" stroke-linejoin="miter" fill="none" stroke="#b3b3b3" d="M0 0H2.523"/>
<path transform="matrix(1,0,0,-1,532.762,241.18103)" stroke-width=".598" stroke-linecap="butt" stroke-miterlimit="10" stroke-linejoin="miter" fill="none" stroke="#b3b3b3" d="M0 0H2.523"/>
<path transform="matrix(1,0,0,-1,537.808,241.18103)" stroke-width=".598" stroke-linecap="butt" stroke-miterlimit="10" stroke-linejoin="miter" fill="none" stroke="#b3b3b3" d="M0 0H2.523"/>
<path transform="matrix(1,0,0,-1,542.854,241.18103)" stroke-width=".598" stroke-linecap="butt" stroke-miterlimit="10" stroke-linejoin="miter" fill="none" stroke="#b3b3b3" d="M0 0H2.523"/>
<path transform="matrix(1,0,0,-1,547.9,241.18103)" stroke-width=".598" stroke-linecap="butt" stroke-miterlimit="10" stroke-linejoin="miter" fill="none" stroke="#b3b3b3" d="M0 0H2.523"/>
<path transform="matrix(1,0,0,-1,552.946,241.18103)" stroke-width=".598" stroke-linecap="butt" stroke-miterlimit="10" stroke-linejoin="miter" fill="none" stroke="#b3b3b3" d="M0 0H2.523"/>
<path transform="matrix(1,0,0,-1,557.992,241.18103)" stroke-width=".598" stroke-linecap="butt" stroke-miterlimit="10" stroke-linejoin="miter" fill="none" stroke="#b3b3b3" d="M0 0H2.523"/>
<path transform="matrix(1,0,0,-1,563.038,241.18103)" stroke-width=".598" stroke-linecap="butt" stroke-miterlimit="10" stroke-linejoin="miter" fill="none" stroke="#b3b3b3" d="M0 0H2.523"/>
<text xml:space="preserve" transform="matrix(1 0 -0 1 0 841.89)" font-size="11.9552" font-family="Lato" font-weight="bold"><tspan y="-580.087" x="361.195 369.0735 375.613 384.28056 391.66886 398.4116 404.48484 408.94413 418.9626 425.03584 430.79826">BScPharmacy</tspan></text>
<text xml:space="preserve" transform="matrix(1 0 -0 1 0 841.89)" font-size="8.9664" font-family="Lato"><tspan y="-580.087" x="524.9096 530.1101 535.3106 540.5111 545.7116 549.0471 554.2476 559.4481 564.6486">2019-2022</tspan></text>
<text xml:space="preserve" transform="matrix(1 0 -0 1 0 841.89)" font-size="9.9626" font-family="FontAwesome5Free"><tspan y="-560.759" x="364.931">&#xfffd;</tspan></text>
<text xml:space="preserve" transform="matrix(1 0 -0 1 0 841.89)" font-size="9.9626" font-family="Lato" font-style="italic"><tspan y="-560.759" x="378.47019 385.1551 390.43528 392.72669 397.3892 402.1613 405.5386 409.52366 411.81507 415.35179 422.46507 427.52607 433.0553 439.12254 444.29313 449.56333 454.33543 459.6156 464.89579 469.98667 474.68904 479.46113">UniversityofCopenhagen</tspan></text>
<text xml:space="preserve" transform="matrix(1 0 -0 1 0 841.89)" font-size="8.9664" font-family="Lato"><tspan y="-541.43197" x="361.195">&#x2022;</tspan></text>
<text xml:space="preserve" transform="matrix(1 0 -0 1 0 841.89)" font-size="9.9626" font-family="Lato"><tspan y="-541.43197" x="371.3768 374.0966 379.65574 385.2348 390.49507 396.08409 401.34434 406.90348 412.48255 417.7428 423.2322 429.3592 435.27699 440.53724 444.85105 450.1113 455.0627 458.47987 463.24198 471.35154 477.2494 480.66654 486.31535 488.70637 493.9666 498.72874 504.8557 509.80714 516.6713 523.1171 528.4969 535.80947 541.6176 547.17678 552.437 556.7508 559.14187 563.4556">IndependentResearchProjectasBScThesis:</tspan><tspan y="-527.08596" x="371.377 374.08683 379.64598 383.95979 389.51893 391.8701 394.2611 402.37068 409.88249 415.11286 418.65956 423.9198 432.11903 434.51005 440.68684 445.63825 451.1974 459.32685 466.0516 468.40278 473.9818 479.54096 487.74018 490.1312 498.24076 504.5869 506.97795 512.53707 518.1161 520.50717 526.0663 533.79727 538.9778 542.5544 548.1135 553.69259 556.0836 561.3439">InsulinDetemirandAlbuminBindingStudied</tspan><tspan y="-512.73898" x="371.377 376.82655 384.51768 389.26985 394.1017 399.24244 401.5936 407.2424 413.4192 420.9011 423.2921 427.60594 433.19496 438.4552 442.0517 446.3655 448.75654 454.40534 462.5149 469.23966 474.7988 479.7502 482.10139 487.15245 491.46626 493.85728 500.7215 505.6729 511.23207 519.3615 524.9107 527.2619 532.831">byTaylorDispersionAnalysisandFlow</tspan><tspan y="-498.39295" x="371.377 378.85893 381.24995 385.56376 391.15278 396.41304 400.00953 404.32334 406.71437 412.36317 420.47273 427.19749 432.75663 437.70805 440.0592 445.11027 449.42408 451.8151 456.1289">DispersionAnalysis.</tspan></text>
<text fill="#00668c" xml:space="preserve" transform="matrix(1 0 -0 1 0 841.89)" font-size="17.2154" font-family="Lato" font-weight="bold"><tspan y="-468.62995" x="361.195 373.00477 382.90364 398.24256 409.3637 423.27375 439.5423 450.21586 460.11473 470.44398 480.34284 493.6159 505.0125 510.1255 520.02438">KEYCOMPETENCIES</tspan></text>
<path transform="matrix(1,0,0,-1,361.195,382.56004)" d="M0 0H208.61V1.993H0Z"/>
<path transform="matrix(1,0,0,-1,382.169,402.884)" stroke-width=".3985" stroke-linecap="butt" stroke-miterlimit="10" stroke-linejoin="miter" fill="none" stroke="#b3b3b3" d="M16.78972 11.35382H-16.78972C-18.99066 11.35382-20.77483 9.56966-20.77483 7.36871V-1.06102C-20.77483-3.26196-18.99066-5.04613-16.78972-5.04613H16.78972C18.99066-5.04613 20.77483-3.26196 20.77483-1.06102V7.36871C20.77483 9.56966 18.99066 11.35382 16.78972 11.35382ZM-20.77483-5.04613"/>
<text xml:space="preserve" transform="matrix(1 0 -0 1 0 841.89)" font-size="9.9626" font-family="Lato"><tspan y="-439.006" x="366.44 372.42753 377.56825 381.1448 386.70396 392.35276">Python</tspan></text>
<path transform="matrix(1,0,0,-1,454.712,402.884)" stroke-width=".3985" stroke-linecap="butt" stroke-miterlimit="10" stroke-linejoin="miter" fill="none" stroke="#b3b3b3" d="M42.28441 11.35382H-42.28441C-44.48535 11.35382-46.26952 9.56966-46.26952 7.36871V-1.06102C-46.26952-3.26196-44.48535-5.04613-42.28441-5.04613H42.28441C44.48535-5.04613 46.26952-3.26196 46.26952-1.06102V7.36871C46.26952 9.56966 44.48535 11.35382 42.28441 11.35382ZM-46.26952-5.04613"/>
<text xml:space="preserve" transform="matrix(1 0 -0 1 0 841.89)" font-size="9.9626" font-family="Lato"><tspan y="-439.006" x="413.489 419.47654 424.61726 432.81648 438.46528 443.36686 453.01066 459.66569 465.22483 467.61585 475.81507 481.07533 484.62199 489.48374">Pymol&#x0026;ChimeraX</tspan></text>
<path transform="matrix(1,0,0,-1,528.517,402.884)" stroke-width=".3985" stroke-linecap="butt" stroke-miterlimit="10" stroke-linejoin="miter" fill="none" stroke="#b3b3b3" d="M18.05249 11.35382H-18.05249C-20.25343 11.35382-22.0376 9.56966-22.0376 7.36871V-1.06102C-22.0376-3.26196-20.25343-5.04613-18.05249-5.04613H18.05249C20.25343-5.04613 22.0376-3.26196 22.0376-1.06102V7.36871C22.0376 9.56966 20.25343 11.35382 18.05249 11.35382ZM-22.0376-5.04613"/>
<text xml:space="preserve" transform="matrix(1 0 -0 1 .000030517579 841.89)" font-size="9.9626" font-family="Lato"><tspan y="-439.006" x="511.526 521.27938 526.5097 532.6367 534.9879 539.93936">Wetlab</tspan></text>
<path transform="matrix(1,0,0,-1,454.48005,420.67903)" stroke-width=".3985" stroke-linecap="butt" stroke-miterlimit="10" stroke-linejoin="miter" fill="none" stroke="#b3b3b3" d="M89.10185 11.35382H-89.10185C-91.3028 11.35382-93.08696 9.56966-93.08696 7.36871V-1.06102C-93.08696-3.26196-91.3028-5.04613-89.10185-5.04613H89.10185C91.3028-5.04613 93.08696-3.26196 93.08696-1.06102V7.36871C93.08696 9.56966 91.3028 11.35382 89.10185 11.35382ZM-93.08696-5.04613"/>
<text xml:space="preserve" transform="matrix(1 0 -0 1 .000030517579 841.89)" font-size="9.9626" font-family="Lato"><tspan y="-421.211" x="366.44 376.73139 379.1224 384.70149 392.51216 398.679 403.6304 409.18955 414.29039 422.10105 427.64027 433.68757 439.44596 444.40733 449.99635 455.2566 458.88298 461.274 469.4732 474.73347 480.22288 483.79945 488.75086 493.65245 498.32493 503.58518 508.3473 513.90646 519.4656 521.8566 527.43569 532.9948 538.25509">WideRangeofExperimentalTechniques</tspan></text>
<path transform="matrix(1,0,0,-1,422.01905,438.47303)" stroke-width=".3985" stroke-linecap="butt" stroke-miterlimit="10" stroke-linejoin="miter" fill="none" stroke="#b3b3b3" d="M56.64072 11.35382H-56.64072C-58.84164 11.35382-60.62582 9.56966-60.62582 7.36871V-1.06102C-60.62582-3.26196-58.84164-5.04613-56.64072-5.04613H56.64072C58.84164-5.04613 60.62582-3.26196 60.62582-1.06102V7.36871C60.62582 9.56966 58.84164 11.35382 56.64072 11.35382ZM-60.62582-5.04613"/>
<text xml:space="preserve" transform="matrix(1 0 -0 1 .000030517579 841.89)" font-size="9.9626" font-family="Lato"><tspan y="-403.417" x="366.44 371.81983 376.58195 378.97297 384.23323 389.72264 393.2992 395.69023 401.39878 408.7113 415.2667 420.9155 429.11473 437.31394 442.87309 448.43223 450.82325 455.58537 460.477 464.05357 466.44459 472.09339">Scienti&#xfb01;cCommunication</tspan></text>
<path transform="matrix(1,0,0,-1,423.54304,456.26805)" stroke-width=".3985" stroke-linecap="butt" stroke-miterlimit="10" stroke-linejoin="miter" fill="none" stroke="#b3b3b3" d="M58.165 11.35382H-58.165C-60.36594 11.35382-62.1501 9.56966-62.1501 7.36871V-1.06102C-62.1501-3.26196-60.36594-5.04613-58.165-5.04613H58.165C60.36594-5.04613 62.1501-3.26196 62.1501-1.06102V7.36871C62.1501 9.56966 60.36594 11.35382 58.165 11.35382ZM-62.1501-5.04613"/>
<text xml:space="preserve" transform="matrix(1 0 -0 1 .000030517579 841.89)" font-size="9.9626" font-family="Lato"><tspan y="-385.622" x="366.44 371.98918 374.34034 379.89949 385.15974 390.64915 396.77613 399.16716 407.2767 414.72874 419.68016 425.2393 427.6303 431.94413 440.05369 449.69749 455.3164 460.87556 466.0561 468.40727 470.79829 475.1121">FluentinDanish&#x0026;English</tspan></text>
<path transform="matrix(1,0,0,-1,448.16905,474.06205)" stroke-width=".3985" stroke-linecap="butt" stroke-miterlimit="10" stroke-linejoin="miter" fill="none" stroke="#b3b3b3" d="M82.79042 11.35382H-82.79042C-84.99136 11.35382-86.77553 9.56966-86.77553 7.36871V-1.06102C-86.77553-3.26196-84.99136-5.04613-82.79042-5.04613H82.79042C84.99136-5.04613 86.77553-3.26196 86.77553-1.06102V7.36871C86.77553 9.56966 84.99136 11.35382 82.79042 11.35382ZM-86.77553-5.04613"/>
<text xml:space="preserve" transform="matrix(1 0 -0 1 .000030517579 841.89)" font-size="9.9626" font-family="Lato"><tspan y="-367.828" x="366.44 369.1598 374.6492 378.1959 383.45616 387.08253 395.28175 400.542 406.12104 408.51206 413.4037 416.95039 424.76106 427.15208 435.26164 440.47206 443.89918 449.15943 454.71858 459.48069 467.59025 472.54167 478.1008 486.2303 488.9401 497.1393 502.72834 506.15547 511.6648 516.8055 519.19656 524.7557">IntermediateinFrenchandImproving</tspan></text>
<path transform="matrix(1,0,0,-1,361.19505,596.64108)" d="M0 9.5003V90.39987C0 95.6468 4.25337 99.90019 9.5003 99.90019H199.11257C204.3595 99.90019 208.61289 95.6468 208.61289 90.39987V9.5003C208.61289 4.25337 204.3595 0 199.11257 0H9.5003C4.25337 0 0 4.25337 0 9.5003Z" fill="#00668c"/>
<path transform="matrix(1,0,0,-1,361.19505,596.64108)" d="M.99628 9.5003V90.39987C.99628 95.09657 4.8036 98.90392 9.5003 98.90392H199.11257C203.80927 98.90392 207.61661 95.09657 207.61661 90.39987V9.5003C207.61661 4.8036 203.80927 .99628 199.11257 .99628H9.5003C4.8036 .99628 .99628 4.8036 .99628 9.5003Z" fill="#ffffff"/>
<text xml:space="preserve" transform="matrix(1 0 -0 1 .000030517579 841.8901)" font-size="11.9552" font-family="Lato" font-weight="bold"><tspan y="-326.331" x="372.996 382.21348 384.8197 392.73405 398.4845 408.04866 412.48405 417.74433 422.14384 428.5279 438.22358 449.34193 455.72599 462.51655 468.58979">H.C.&#x00d8;rstedMedal</tspan></text>
<text xml:space="preserve" transform="matrix(1 0 -0 1 .000030517579 841.8901)" font-size="8.9664" font-family="Lato"><tspan y="-309.19599" x="372.996 378.79728 385.79106 390.24736 393.34077 398.36195 403.0962 411.0404 414.04417 419.1281 425.3149 429.7712 434.05717 439.06044 441.21238 445.848 450.47465 452.6266 457.62986 465.2244 472.60374 477.26628 480.4583 484.9146 489.9358 497.59309 501.95973 506.58638">Awardedforachievingagradeav-</tspan><tspan y="-296.04499" x="372.996 377.73027 380.9223 385.3786 389.96943 398.12886 402.58515 407.60633 412.56477 417.0659 425.2253 430.4258 435.6263 437.74238 446.36805 448.52 456.94844 461.9696 466.97288 470.1918 478.62025 481.83918 486.84245 494.9929 500.79417 505.63603">erageabove10.5inboththeBSc</tspan><tspan y="-282.89399" x="372.996 377.4523 382.45558 389.42247 397.75224 402.5941 408.81678 413.27308 418.27635 425.24324 430.44374 437.58995 439.74189 446.6819 449.90083 454.90409 461.58406 466.7218 471.72508 476.18138 480.23417 485.2643 488.34877 493.4327 495.58467 500.3189 504.60487 507.8238">andMScand12inthe&#xfb01;nalproject.</tspan><tspan y="-269.744" x="372.996 378.21446 383.2177 385.36967 392.27378 396.15623 401.1595 406.17173 413.18345 420.08757 423.3065 428.30976 432.70329 438.93495 444.10856 448.7711 451.96315 456.41944 461.4406 466.44389 470.8374 474.0384 478.77265 486.80653 488.95848 496.97444 500.19337 505.19664">Thisshowsthatigraduatedinthe</tspan><tspan y="-256.593" x="372.996 376.18806 381.272 388.59757 393.79808 403.28453 408.26985 413.71247 420.9842 427.90626 432.40739 437.14164 441.59794 444.50306">top2%ofmyyear.</tspan></text>
<text xml:space="preserve" transform="matrix(3.19856 0 -0 3.19856 -1145.4563 1467.897)" font-size="9.9626" font-family="FontAwesome5Free"><tspan y="-284.735" x="523.494">&#xfffd;</tspan></text>
<text fill="#00668c" xml:space="preserve" transform="matrix(1 0 -0 1 .000030517579 841.89)" font-size="17.2154" font-family="Lato" font-weight="bold"><tspan y="-210.816" x="361.195 373.1597 384.50465 398.41468 411.20573 425.71833 441.98689">ABOUTME</tspan></text>
<path transform="matrix(1,0,0,-1,361.19505,640.374)" d="M0 0H208.61V1.993H0Z"/>
<path transform="matrix(1,0,0,-1,379.17704,660.698)" stroke-width=".3985" stroke-linecap="butt" stroke-miterlimit="10" stroke-linejoin="miter" fill="none" stroke="#b3b3b3" d="M13.7984 11.35382H-13.7984C-15.99934 11.35382-17.78351 9.56966-17.78351 7.36871V-1.06102C-17.78351-3.26196-15.99934-5.04613-13.7984-5.04613H13.7984C15.99934-5.04613 17.78351-3.26196 17.78351-1.06102V7.36871C17.78351 9.56966 15.99934 11.35382 13.7984 11.35382ZM-17.78351-5.04613"/>
<text xml:space="preserve" transform="matrix(1 0 -0 1 .000030517579 841.89)" font-size="9.9626" font-family="Lato"><tspan y="-181.192" x="366.44 371.81983 377.46864 382.23075 384.62178 389.57319">Social</tspan></text>
<path transform="matrix(1,0,0,-1,424.33805,660.698)" stroke-width=".3985" stroke-linecap="butt" stroke-miterlimit="10" stroke-linejoin="miter" fill="none" stroke="#b3b3b3" d="M17.8931 11.35382H-17.8931C-20.09404 11.35382-21.8782 9.56966-21.8782 7.36871V-1.06102C-21.8782-3.26196-20.09404-5.04613-17.8931-5.04613H17.8931C20.09404-5.04613 21.8782-3.26196 21.8782-1.06102V7.36871C21.8782 9.56966 20.09404 11.35382 17.8931 11.35382ZM-21.8782-5.04613"/>
<text xml:space="preserve" transform="matrix(1 0 -0 1 .000030517579 841.89)" font-size="9.9626" font-family="Lato"><tspan y="-181.192" x="407.506 414.08134 419.64048 423.26686 425.65788 431.30668 436.8658">Curious</tspan></text>
<path transform="matrix(1,0,0,-1,477.94706,660.698)" stroke-width=".3985" stroke-linecap="butt" stroke-miterlimit="10" stroke-linejoin="miter" fill="none" stroke="#b3b3b3" d="M22.24683 11.35382H-22.24683C-24.44777 11.35382-26.23193 9.56966-26.23193 7.36871V-1.06102C-26.23193-3.26196-24.44777-5.04613-22.24683-5.04613H22.24683C24.44777-5.04613 26.23193-3.26196 26.23193-1.06102V7.36871C26.23193 9.56966 24.44777 11.35382 22.24683 11.35382ZM-26.23193-5.04613"/>
<text xml:space="preserve" transform="matrix(1 0 -0 1 .000061035159 841.89)" font-size="9.9626" font-family="Lato"><tspan y="-181.192" x="456.761 462.56919 468.12834 473.77714 477.19429 482.84309 488.40223 493.58277">Thorough</tspan></text>
<path transform="matrix(1,0,0,-1,522.6321,660.698)" stroke-width=".3985" stroke-linecap="butt" stroke-miterlimit="10" stroke-linejoin="miter" fill="none" stroke="#b3b3b3" d="M8.96896 11.35382H-8.96896C-11.1699 11.35382-12.95407 9.56966-12.95407 7.36871V-1.06102C-12.95407-3.26196-11.1699-5.04613-8.96896-5.04613H8.96896C11.1699-5.04613 12.95407-3.26196 12.95407-1.06102V7.36871C12.95407 9.56966 11.1699 11.35382 8.96896 11.35382ZM-12.95407-5.04613"/>
<text xml:space="preserve" transform="matrix(1 0 -0 1 .000061035159 841.89)" font-size="9.9626" font-family="Lato"><tspan y="-181.192" x="514.724 521.4488 526.968">Apt</tspan></text>
<text xml:space="preserve" transform="matrix(1 0 -0 1 .000061035159 841.89)" font-size="9.9626" font-family="Lato"><tspan y="-160.868" x="361.195 366.53495 371.56608 376.5175 378.86866 384.4278 392.23847 397.18989 402.74903 410.87849 416.4675 420.09388 422.4849 428.1337 431.76008 434.1511 437.72767 440.11869 444.52214 452.3328 457.00526 462.65406 470.77357 474.11106 479.75987 483.38624 486.9628 491.9142 497.4933 499.84446 507.65513 511.96894 517.61776 522.3799 524.77096 529.72238 534.62399 538.93777 544.52676 549.47817 554.15066 559.4109 563.7247">Ivalueandprioritizecomfortablesocialspaces.</tspan><tspan y="-146.522" x="361.195 368.69685 374.25599 377.88236 380.27339 385.83253 393.56349 401.63319 409.3243 413.63813 417.2147 422.77384 428.3529 430.74394 436.00419 442.8684 447.80986 453.369 458.22077 463.22203 471.03269 476.03395 481.68275 484.0339 489.59306 495.08247 498.62916 503.8894 509.14967 512.5768 517.83706 523.4161">Duringmystudiesihavevolunteered:</tspan></text>
<text xml:space="preserve" transform="matrix(1 0 -0 1 .000061035159 841.89)" font-size="8.9664" font-family="Lato"><tspan y="-129.685" x="361.195">&#x2022;</tspan></text>
<text xml:space="preserve" transform="matrix(1 0 -0 1 .000061035159 841.89)" font-size="9.9626" font-family="Lato"><tspan y="-129.685" x="371.3768 379.70555 384.7068 389.96705 394.91847 398.51496 405.37919 410.3306 417.19483 422.14625 426.90837 431.85978 437.43885 442.6991 450.89833 453.28935 460.60188 464.17845 469.73759 473.28428 478.94303">2yearsasacademictutor</tspan></text>
<text xml:space="preserve" transform="matrix(1 0 -0 1 .000061035159 841.89)" font-size="8.9664" font-family="Lato"><tspan y="-111.752" x="361.195">&#x2022;</tspan></text>
<text xml:space="preserve" transform="matrix(1 0 -0 1 .000061035159 841.89)" font-size="9.9626" font-family="Lato"><tspan y="-111.752" x="371.3768 379.70555 384.7068 389.96705 394.91847 398.51496 405.37919 410.3306 417.19483 421.50865 427.15745 431.91957 434.31059 439.262 444.16358 447.74015 453.2993 456.84599 462.50474">2yearsassocialtutor</tspan><tspan y="-93.82" x="361.195 363.90483 372.01438 380.09407 387.7852 391.28208 394.69923 399.95948 407.77015 411.3467 413.73774 421.93696 427.1972 432.00914 437.34907 442.6093 448.16847 450.55949 456.0489 463.74003 469.3191 474.57936 476.97038 482.5295 490.26048 492.6515 500.76106 506.3202 511.21183 514.7884 520.34756 523.7647 529.02499 533.8369 542.03616 547.2964 552.52676 556.10336 558.4944 564.0535">Inmyfreetime,Ienjoybeinginnature,meeting</tspan><tspan y="-79.474" x="361.195 366.75416 371.9646 382.3456 387.93464 393.1949 398.8437 404.4327 406.78388 412.04414 416.85606 421.80747 427.3666 435.4961 439.07267 442.61933 447.46116 452.4624 457.72267 460.07383 462.425 464.816 470.37516 475.5557">newpeople,andtravelling.</tspan></text>
</svg>
